<svg width="32" height="32" viewBox="0 0 32 32" fill="none" xmlns="http://www.w3.org/2000/svg">
<rect width="32" height="32" rx="4" fill="#F1F3F5"/>
<path fill-rule="evenodd" clip-rule="evenodd" d="M10.915 7.625C10.0886 7.625 9.41943 8.295 9.41943 9.12054V22.8795C9.41943 23.705 10.0894 24.375 10.915 24.375H21.0846C21.9101 24.375 22.5801 23.705 22.5801 22.8795V16.5982C22.5801 15.8049 22.265 15.0441 21.7041 14.4832C21.1431 13.9223 20.3824 13.6071 19.5891 13.6071H18.0935C17.6969 13.6071 17.3165 13.4496 17.036 13.1691C16.7556 12.8886 16.598 12.5082 16.598 12.1116V10.6161C16.598 9.82279 16.2829 9.062 15.7219 8.50106C15.161 7.94013 14.4002 7.625 13.6069 7.625H10.915ZM12.4105 18.3929C12.4105 18.2342 12.4735 18.082 12.5857 17.9699C12.6979 17.8577 12.8501 17.7946 13.0087 17.7946H18.9909C19.1495 17.7946 19.3017 17.8577 19.4139 17.9699C19.5261 18.082 19.5891 18.2342 19.5891 18.3929C19.5891 18.5515 19.5261 18.7037 19.4139 18.8159C19.3017 18.928 19.1495 18.9911 18.9909 18.9911H13.0087C12.8501 18.9911 12.6979 18.928 12.5857 18.8159C12.4735 18.7037 12.4105 18.5515 12.4105 18.3929ZM13.0087 20.1875C12.8501 20.1875 12.6979 20.2505 12.5857 20.3627C12.4735 20.4749 12.4105 20.6271 12.4105 20.7857C12.4105 20.9444 12.4735 21.0965 12.5857 21.2087C12.6979 21.3209 12.8501 21.3839 13.0087 21.3839H15.9998C16.1584 21.3839 16.3106 21.3209 16.4228 21.2087C16.535 21.0965 16.598 20.9444 16.598 20.7857C16.598 20.6271 16.535 20.4749 16.4228 20.3627C16.3106 20.2505 16.1584 20.1875 15.9998 20.1875H13.0087Z" fill="#687076"/>
<path d="M16.7744 7.8772C17.4337 8.6373 17.796 9.61006 17.7946 10.6162V12.1118C17.7946 12.2769 17.9286 12.4109 18.0937 12.4109H19.5892C20.5954 12.4095 21.5681 12.7718 22.3282 13.431C21.9773 12.0964 21.2782 10.8789 20.3024 9.90306C19.3266 8.92724 18.1091 8.22812 16.7744 7.8772Z" fill="#687076"/>
</svg>
