<svg width="32" height="32" viewBox="0 0 32 32" fill="none"
    xmlns="http://www.w3.org/2000/svg">
    <path d="M26.4471 5.86972L19.6283 1.96144C17.3973 0.679521 14.6635 0.679521 12.4325 1.96144L5.58223 5.86972C3.38261 7.15164 2 9.52788 2 12.0604V19.9083C2 22.4721 3.38261 24.8171 5.58223 26.099L12.401 30.0386C14.6321 31.3205 17.3659 31.3205 19.5969 30.0386L26.4157 26.099C28.6468 24.8171 29.9979 22.4721 29.9979 19.9083V12.0604C30.0608 9.52788 28.6782 7.15164 26.4471 5.86972ZM16.0147 22.9724C12.1496 22.9724 9.00734 19.8458 9.00734 16C9.00734 12.1542 12.1496 9.02762 16.0147 9.02762C19.8797 9.02762 23.0534 12.1542 23.0534 16C23.0534 19.8458 19.9111 22.9724 16.0147 22.9724Z" fill="url(#paint0_linear_362_938)"/>
    <defs>
        <linearGradient id="paint0_linear_362_938" x1="2" y1="31" x2="35.7561" y2="21.5406" gradientUnits="userSpaceOnUse">
            <stop stop-color="#000"/>
            <stop offset="1" stop-color="#000"/>
        </linearGradient>
    </defs>
</svg>
