<svg width="18" height="18" viewBox="0 0 18 18" fill="none" xmlns="http://www.w3.org/2000/svg">
<path d="M9 0C4.02944 0 0 4.02942 0 9C0 13.9706 4.02946 18 9 18C13.9706 18 18 13.9706 18 9C18 4.02942 13.9706 0 9 0ZM1.93387 9.09382L8.90617 16.0661C5.07758 16.0162 1.98376 12.9224 1.93387 9.09382ZM10.5818 15.8895L2.11055 7.41823C2.82887 4.27664 5.64063 1.93269 9 1.93269C11.3483 1.93269 13.4286 3.07829 14.7138 4.84076L13.7353 5.70416C12.6928 4.20917 10.9608 3.23077 9 3.23077C6.50354 3.23077 4.37762 4.81649 3.57407 7.03558L10.9644 14.426C12.7592 13.776 14.1395 12.261 14.6018 10.3846H11.5385V9.00002H14.7692V8.99998H16.0673V9C16.0673 12.3594 13.7234 15.1711 10.5818 15.8895Z" fill="#9CA3AF"/>
</svg>
