<svg width="18" height="18" viewBox="0 0 18 18" fill="none" xmlns="http://www.w3.org/2000/svg">
<path d="M8.41056 0.00484386C8.37185 0.00836241 8.24868 0.0206773 8.13783 0.0294737C5.58123 0.259938 3.18651 1.63921 1.66979 3.75913C0.82522 4.93784 0.285044 6.27489 0.0809384 7.6911C0.00879765 8.18546 0 8.33148 0 9.00176C0 9.67204 0.00879765 9.81806 0.0809384 10.3124C0.570088 13.692 2.97537 16.5314 6.23754 17.5835C6.8217 17.7717 7.43754 17.9002 8.13783 17.9776C8.41056 18.0075 9.58944 18.0075 9.86217 17.9776C11.071 17.8439 12.095 17.5448 13.105 17.0293C13.2598 16.9502 13.2897 16.929 13.2686 16.9114C13.2545 16.9009 12.5947 16.016 11.8029 14.9463L10.3636 13.0023L8.56012 10.3335C7.56774 8.8663 6.75132 7.66647 6.74428 7.66647C6.73724 7.66472 6.73021 8.85046 6.72669 10.2983C6.72141 12.8335 6.71965 12.9355 6.68798 12.9953C6.64223 13.0815 6.60704 13.1167 6.53314 13.1554C6.47683 13.1836 6.42757 13.1888 6.16188 13.1888H5.85748L5.77654 13.1378C5.72375 13.1044 5.68504 13.0604 5.65865 13.0094L5.6217 12.9302L5.62522 9.40288L5.6305 5.87378L5.68504 5.80516C5.7132 5.76822 5.77302 5.72072 5.81525 5.69785C5.88739 5.66266 5.91554 5.65914 6.21994 5.65914C6.57889 5.65914 6.63871 5.67322 6.73197 5.77526C6.75836 5.80341 7.7349 7.27416 8.90323 9.04574C10.0716 10.8173 11.6692 13.2363 12.454 14.4238L13.8792 16.5825L13.9513 16.535C14.59 16.1198 15.2657 15.5287 15.8006 14.9129C16.939 13.6058 17.6727 12.0119 17.9191 10.3124C17.9912 9.81806 18 9.67204 18 9.00176C18 8.33148 17.9912 8.18546 17.9191 7.6911C17.4299 4.31154 15.0246 1.47208 11.7625 0.420032C11.1871 0.233549 10.5748 0.105122 9.88856 0.0277144C9.71965 0.0101217 8.5566 -0.00923031 8.41056 0.00484386ZM12.095 5.44803C12.1795 5.49025 12.2481 5.57118 12.2727 5.65563C12.2868 5.70137 12.2903 6.67952 12.2868 8.88389L12.2815 12.0471L11.7238 11.1921L11.1642 10.3371V8.03768C11.1642 6.5511 11.1713 5.71544 11.1818 5.67498C11.21 5.57646 11.2716 5.49905 11.356 5.45331C11.4282 5.41637 11.4545 5.41285 11.7308 5.41285C11.9912 5.41285 12.037 5.41637 12.095 5.44803Z" fill="#737373"/>
</svg>
