<svg width="20" height="20" viewBox="0 0 20 20" fill="none" xmlns="http://www.w3.org/2000/svg">
<path d="M12.4292 12.3984L10.556 10.5251M2.47656 17.5004C2.47656 17.5004 9.99245 14.8351 12.1703 12.6573C12.4888 12.3393 12.7416 11.9617 12.9141 11.546C13.0867 11.1303 13.1757 10.6847 13.176 10.2346C13.1764 9.78457 13.0881 9.33883 12.9162 8.92288C12.7443 8.50693 12.4921 8.12891 12.1741 7.81041C11.8561 7.49191 11.4785 7.23917 11.0628 7.0666C10.6471 6.89404 10.2015 6.80504 9.75147 6.80469C9.3014 6.80434 8.85566 6.89263 8.43971 7.06454C8.02376 7.23645 7.64575 7.48861 7.32724 7.80661C5.14177 9.99208 2.47656 17.5004 2.47656 17.5004ZM7.32724 11.6369L5.76619 10.0835L7.32724 11.6369Z" stroke="#9CA3AF" stroke-width="1.52298" stroke-linecap="round" stroke-linejoin="round"/>
<path d="M17.5003 7.82962C17.5003 7.82962 16.4876 6.30664 14.8351 6.30664C13.5863 6.30664 12.1699 7.82962 12.1699 7.82962C12.1699 7.82962 13.1827 9.3526 14.8351 9.3526C16.4876 9.3526 17.5003 7.82962 17.5003 7.82962Z" stroke="#9CA3AF" stroke-width="1.52298" stroke-linecap="round" stroke-linejoin="round"/>
<path d="M12.1695 2.49805C12.1695 2.49805 10.6465 3.51083 10.6465 5.16326C10.6465 6.81569 12.1695 7.82847 12.1695 7.82847C12.1695 7.82847 13.6924 6.42733 13.6924 5.16326C13.6924 3.51083 12.1695 2.49805 12.1695 2.49805Z" stroke="#9CA3AF" stroke-width="1.52298" stroke-linecap="round" stroke-linejoin="round"/>
</svg>
