<svg width="20" height="20" viewBox="0 0 20 20" fill="none" xmlns="http://www.w3.org/2000/svg">
<path d="M5.47266 8.89453H8.47266" stroke="#9CA3AF" stroke-width="1.5" stroke-linecap="round" stroke-linejoin="round"/>
<path d="M6.97266 7.39453V10.3945" stroke="#9CA3AF" stroke-width="1.5" stroke-linecap="round" stroke-linejoin="round"/>
<path d="M12.4512 9.58398H12.4599" stroke="#9CA3AF" stroke-width="1.5" stroke-linecap="round" stroke-linejoin="round"/>
<path d="M14.1055 7.71289H14.1142" stroke="#9CA3AF" stroke-width="1.5" stroke-linecap="round" stroke-linejoin="round"/>
<path d="M13.99 4.5H6.01C5.26771 4.50018 4.55184 4.78865 4.00078 5.30965C3.44971 5.83065 3.10258 6.54717 3.0265 7.32071C3.022 7.36157 3.019 7.40007 3.01375 7.44014C2.953 7.96971 2.5 11.9297 2.5 13.1429C2.5 13.768 2.73705 14.3676 3.15901 14.8096C3.58097 15.2517 4.15326 15.5 4.75 15.5C5.5 15.5 5.875 15.1071 6.25 14.7143L7.3105 13.6033C7.59174 13.3086 7.97321 13.1429 8.371 13.1429H11.629C12.0268 13.1429 12.4083 13.3086 12.6895 13.6033L13.75 14.7143C14.125 15.1071 14.5 15.5 15.25 15.5C15.8467 15.5 16.419 15.2517 16.841 14.8096C17.2629 14.3676 17.5 13.768 17.5 13.1429C17.5 11.9289 17.047 7.96971 16.9863 7.44014C16.981 7.40086 16.978 7.36157 16.9735 7.3215C16.8976 6.54782 16.5505 5.8311 15.9995 5.30994C15.4484 4.78878 14.7324 4.5002 13.99 4.5V4.5Z" stroke="#9CA3AF" stroke-width="1.5" stroke-linecap="round" stroke-linejoin="round"/>
</svg>
