<svg width="20" height="20" viewBox="0 0 20 20" fill="none" xmlns="http://www.w3.org/2000/svg">
<path d="M16.316 4.52475C15.9399 4.14732 15.493 3.84785 15.0008 3.64351C14.5087 3.43917 13.9811 3.33398 13.4483 3.33398C12.9154 3.33398 12.3878 3.43917 11.8957 3.64351C11.4036 3.84785 10.9567 4.14732 10.5806 4.52475L10.0033 5.10955L9.42596 4.52475C9.04984 4.14732 8.6029 3.84785 8.11079 3.64351C7.61868 3.43917 7.09108 3.33398 6.55823 3.33398C6.02538 3.33398 5.49778 3.43917 5.00567 3.64351C4.51356 3.84785 4.06663 4.14732 3.6905 4.52475C2.10107 6.11419 2.0036 8.79823 4.00539 10.8375L10.0033 16.8354L16.0011 10.8375C18.0029 8.79823 17.9054 6.11419 16.316 4.52475Z" stroke="#9CA3AF" stroke-width="1.49947" stroke-linecap="round" stroke-linejoin="round"/>
</svg>
