<svg width="20" height="20" viewBox="0 0 20 20" fill="none" xmlns="http://www.w3.org/2000/svg">
<path d="M7.875 14.25H12.125" stroke="#9CA3AF" stroke-width="1.5" stroke-linecap="round" stroke-linejoin="round"/>
<path d="M8.58398 17.084H11.4173" stroke="#9CA3AF" stroke-width="1.5" stroke-linecap="round" stroke-linejoin="round"/>
<path d="M12.1887 11.416C12.3162 10.7218 12.6492 10.1835 13.1875 9.64518C13.5295 9.33033 13.801 8.94664 13.9842 8.51934C14.1673 8.09205 14.2579 7.63083 14.25 7.16602C14.25 6.03885 13.8022 4.95784 13.0052 4.16081C12.2082 3.36378 11.1272 2.91602 10 2.91602C8.87283 2.91602 7.79183 3.36378 6.9948 4.16081C6.19777 4.95784 5.75 6.03885 5.75 7.16602C5.75 7.87435 5.91292 8.7456 6.8125 9.64518C7.32537 10.1141 7.67525 10.7345 7.81125 11.416" stroke="#9CA3AF" stroke-width="1.5" stroke-linecap="round" stroke-linejoin="round"/>
</svg>
