<svg width="20" height="20" viewBox="0 0 20 20" fill="none" xmlns="http://www.w3.org/2000/svg">
<path d="M13.9856 15.1639L12.6495 9.07732L15.2474 6.47938C16.3608 5.36598 16.732 3.88144 16.3608 3.13918C15.6186 2.76804 14.134 3.13918 13.0206 4.25258L10.4227 6.85052L4.33608 5.51443C3.96495 5.44021 3.66804 5.58866 3.51959 5.88557L3.29691 6.2567C3.14845 6.62783 3.22268 6.99897 3.51959 7.22165L7.45361 9.81959L5.96907 12.0464H3.74227L3 12.7887L5.2268 14.2732L6.71134 16.5L7.45361 15.7577V13.5309L9.68041 12.0464L12.2784 15.9804C12.501 16.2773 12.8722 16.3515 13.2433 16.2031L13.6144 16.0546C13.9113 15.832 14.0598 15.5351 13.9856 15.1639V15.1639Z" stroke="#9CA3AF" stroke-width="1.5" stroke-linecap="round" stroke-linejoin="round"/>
</svg>
