<svg width="20" height="20" viewBox="0 0 20 20" fill="none" xmlns="http://www.w3.org/2000/svg">
<path d="M16.9696 18.0303C17.2625 18.3232 17.7374 18.3232 18.0302 18.0303C18.3231 17.7374 18.3231 17.2626 18.0302 16.9697L16.9696 18.0303ZM14.4052 13.3447C14.1124 13.0518 13.6375 13.0518 13.3446 13.3447C13.0517 13.6376 13.0517 14.1124 13.3446 14.4053L14.4052 13.3447ZM15.0833 9.16667C15.0833 12.4344 12.4344 15.0833 9.16667 15.0833V16.5833C13.2628 16.5833 16.5833 13.2628 16.5833 9.16667H15.0833ZM9.16667 15.0833C5.89898 15.0833 3.25 12.4344 3.25 9.16667H1.75C1.75 13.2628 5.07055 16.5833 9.16667 16.5833V15.0833ZM3.25 9.16667C3.25 5.89898 5.89898 3.25 9.16667 3.25V1.75C5.07055 1.75 1.75 5.07055 1.75 9.16667H3.25ZM9.16667 3.25C12.4344 3.25 15.0833 5.89898 15.0833 9.16667H16.5833C16.5833 5.07055 13.2628 1.75 9.16667 1.75V3.25ZM18.0302 16.9697L14.4052 13.3447L13.3446 14.4053L16.9696 18.0303L18.0302 16.9697Z" fill="#9CA3AF"/>
</svg>
