<svg width="20" height="20" viewBox="0 0 20 20" fill="none" xmlns="http://www.w3.org/2000/svg">
<path d="M5.83398 16.666H14.1673" stroke="#9CA3AF" stroke-width="1.5" stroke-linecap="round" stroke-linejoin="round"/>
<path d="M8.33398 16.6673C12.9173 14.584 9.00065 11.334 10.834 8.33398" stroke="#9CA3AF" stroke-width="1.5" stroke-linecap="round" stroke-linejoin="round"/>
<path d="M7.91732 7.83349C8.83398 8.50016 9.41732 9.66683 9.83398 10.9168C8.16732 11.2502 6.91732 11.2502 5.83398 10.6668C4.83398 10.1668 3.91732 9.08349 3.33398 7.16683C5.66732 6.75016 7.00065 7.16683 7.91732 7.83349V7.83349Z" stroke="#9CA3AF" stroke-width="1.5" stroke-linecap="round" stroke-linejoin="round"/>
<path d="M11.7498 5.00065C11.1145 5.99362 10.7949 7.15577 10.8332 8.33398C12.4165 8.25065 13.5832 7.83398 14.4165 7.16732C15.2498 6.33398 15.7498 5.25065 15.8332 3.33398C13.5832 3.41732 12.4998 4.16732 11.7498 5.00065Z" stroke="#9CA3AF" stroke-width="1.5" stroke-linecap="round" stroke-linejoin="round"/>
</svg>
