<svg xmlns="http://www.w3.org/2000/svg" viewBox="0 0 371.2226 96">
  <title>medusa-logo-full-colour-rgb</title>
  <g id="full-rgb">
    <path id="logoMark" d="M77.8271,15.6225,56.08,3.0664a22.8877,22.8877,0,0,0-22.8877,0L11.4438,15.6225A22.8877,22.8877,0,0,0,0,35.4438V60.5562A22.8877,22.8877,0,0,0,11.4438,80.3775L33.1919,92.9336a22.8877,22.8877,0,0,0,22.8877,0L77.8271,80.3775A22.8876,22.8876,0,0,0,89.271,60.5562V35.4438A22.8876,22.8876,0,0,0,77.8271,15.6225ZM44.6357,70.3178A22.3178,22.3178,0,1,1,66.9531,48,22.3176,22.3176,0,0,1,44.6357,70.3178Z" style="fill: #56fbb1"/>
    <g id="type">
      <path id="type_CompoundPathItem_" data-name="type &lt;CompoundPathItem&gt;" d="M163.5361,22.6571h14.1416V71.662H169.206V30.078L155.625,71.662h-8.8907l-13.581-41.0948V71.662h-8.4707V22.6571h14.2109l12.3906,39.2734Z" style="fill: #0a3149"/>
      <path id="type_CompoundPathItem_2" data-name="type &lt;CompoundPathItem&gt;" d="M220.4453,60.6c-2.03,7.3516-8.2608,12.042-17.0118,12.042-10.9209,0-17.8525-7.3515-17.8525-18.4824s7.001-18.4814,18.0625-18.4814c12.3213,0,18.6914,9.24,15.332,20.7216H194.0517c.7012,5.8106,3.9209,9.2413,9.5215,9.2413,3.92,0,7.001-1.82,8.1914-5.0411Zm-26.253-9.871H211.414c.49-5.04-2.38-8.33-7.9111-8.33C198.2529,42.3993,195.0322,45.34,194.1923,50.7294Z" style="fill: #0a3149"/>
      <path id="type_CompoundPathItem_3" data-name="type &lt;CompoundPathItem&gt;" d="M252.5742,22.6571h7.9814V71.662h-7.9814V66.4813a13.8489,13.8489,0,0,1-11.9014,6.1611c-9.24,0-15.752-7.3515-15.752-18.4824,0-11.06,6.4415-18.4814,15.752-18.4814a13.85,13.85,0,0,1,11.9014,6.16Zm.3506,31.5029c0-6.9306-3.9209-11.4814-9.8018-11.4814-5.95,0-9.87,4.5508-9.87,11.4814s3.92,11.4815,9.87,11.4815C249.0039,65.6415,252.9248,61.0907,252.9248,54.16Z" style="fill: #0a3149"/>
      <path id="type_CompoundPathItem_4" data-name="type &lt;CompoundPathItem&gt;" d="M290.2333,36.6581h7.9805V71.662h-7.9805V65.3612c-2.4511,4.69-6.4414,7.1406-11.3417,7.1406-9.7305,0-11.2715-9.6611-11.2715-15.8916V36.6581h7.98V56.5409c0,4.62,1.0508,9.03,6.0918,9.03,5.18,0,8.541-4.62,8.541-11.0605Z" style="fill: #0a3149"/>
      <path id="type_CompoundPathItem_5" data-name="type &lt;CompoundPathItem&gt;" d="M304.0888,59.1307H311.79c-.49,4.3408,2.7305,7.07,8.1914,7.07,4.2695,0,7.1406-1.68,7.1406-4.2,0-7.0009-22.5429-1.96-22.5429-15.0517,0-7,6.5107-11.27,14.9824-11.27,9.3808,0,16.1709,5.25,14.7011,13.1611h-7.7714c.98-3.99-2.17-6.7207-7-6.7207-4.0606,0-6.7207,1.82-6.7207,4.34,0,7.0713,22.6123,1.6807,22.6123,14.9825,0,7.07-6.3711,11.2011-15.4717,11.2011C310.04,72.6424,303.5292,67.6014,304.0888,59.1307Z" style="fill: #0a3149"/>
      <path id="type_CompoundPathItem_6" data-name="type &lt;CompoundPathItem&gt;" d="M371.2226,51.78V71.662H363.872V65.5711a13.7856,13.7856,0,0,1-12.6015,7.0713c-7.42,0-12.0411-4.3408-12.0411-10.4316,0-7.07,6.16-11.3408,16.0313-11.3408a36.6377,36.6377,0,0,1,7.9814.91c0-5.3213-1.8906-9.1709-7.4912-9.1709-4.2,0-6.791,2.1-5.95,6.02H341.749c-1.89-7.77,4.9707-12.9511,14.0722-12.9511C366.0419,35.6786,371.2226,42.0487,371.2226,51.78Zm-7.7,6.0909a25.2,25.2,0,0,0-7.6308-1.19c-5.7413,0-8.5411,2.1006-8.5411,5.32,0,2.8008,2.1,4.27,5.53,4.27A10.8339,10.8339,0,0,0,363.5224,57.871Z" style="fill: #0a3149"/>
    </g>
  </g>
</svg>