<svg width="18" height="18" viewBox="0 0 18 18" fill="none" xmlns="http://www.w3.org/2000/svg">
<path d="M6.5 13.375V14.2142C6.50004 14.5426 6.43537 14.8678 6.30968 15.1712C6.184 15.4746 5.99976 15.7503 5.7675 15.9825L5.25 16.5H12.75L12.2325 15.9825C12.0002 15.7503 11.816 15.4746 11.6903 15.1712C11.5646 14.8678 11.5 14.5426 11.5 14.2142V13.375M16.5 3.375V11.5C16.5 11.9973 16.3025 12.4742 15.9508 12.8258C15.5992 13.1775 15.1223 13.375 14.625 13.375H3.375C2.87772 13.375 2.40081 13.1775 2.04917 12.8258C1.69754 12.4742 1.5 11.9973 1.5 11.5V3.375M16.5 3.375C16.5 2.87772 16.3025 2.40081 15.9508 2.04917C15.5992 1.69754 15.1223 1.5 14.625 1.5H3.375C2.87772 1.5 2.40081 1.69754 2.04917 2.04917C1.69754 2.40081 1.5 2.87772 1.5 3.375M16.5 3.375V9C16.5 9.49728 16.3025 9.97419 15.9508 10.3258C15.5992 10.6775 15.1223 10.875 14.625 10.875H3.375C2.87772 10.875 2.40081 10.6775 2.04917 10.3258C1.69754 9.97419 1.5 9.49728 1.5 9V3.375" stroke="#9CA3AF" stroke-width="1.5" stroke-linecap="round" stroke-linejoin="round"/>
</svg>
