<svg width="20" height="20" viewBox="0 0 20 20" fill="none" xmlns="http://www.w3.org/2000/svg">
<path d="M12.917 4.16675H14.3753C14.7621 4.16675 15.133 4.32283 15.4065 4.60066C15.68 4.8785 15.8337 5.25532 15.8337 5.64823V8.33341M7.08366 4.16675H5.62533C5.23855 4.16675 4.86762 4.32283 4.59413 4.60066C4.32064 4.8785 4.16699 5.25532 4.16699 5.64823V16.0186C4.16699 16.4115 4.32064 16.7883 4.59413 17.0662C4.86762 17.344 5.23855 17.5001 5.62533 17.5001H14.3753C14.7621 17.5001 15.133 17.344 15.4065 17.0662C15.68 16.7883 15.8337 16.4115 15.8337 16.0186V15.0001" stroke="#737373" stroke-width="1.5" stroke-linecap="round" stroke-linejoin="round"/>
<path d="M11.875 2.5H8.125C7.77982 2.5 7.5 2.8731 7.5 3.33333V5C7.5 5.46024 7.77982 5.83333 8.125 5.83333H11.875C12.2202 5.83333 12.5 5.46024 12.5 5V3.33333C12.5 2.8731 12.2202 2.5 11.875 2.5Z" stroke="#737373" stroke-width="1.5" stroke-linecap="round" stroke-linejoin="round"/>
<path d="M17.5 11.6667H10" stroke="#737373" stroke-width="1.5" stroke-linecap="round" stroke-linejoin="round"/>
<path d="M12.5 9.16675L10 11.6667L12.5 14.1667" stroke="#737373" stroke-width="1.5" stroke-linecap="round" stroke-linejoin="round"/>
</svg>
