<svg width="20" height="20" viewBox="0 0 20 20" fill="none" xmlns="http://www.w3.org/2000/svg">
<path d="M3.02901 6.12695H2.25439" stroke="#9CA3AF" stroke-width="1.5" stroke-linecap="round" stroke-linejoin="round"/>
<path d="M3.80363 3.80322H2.25439" stroke="#9CA3AF" stroke-width="1.5" stroke-linecap="round" stroke-linejoin="round"/>
<path d="M13.8734 16.1968H3.02881" stroke="#9CA3AF" stroke-width="1.5" stroke-linecap="round" stroke-linejoin="round"/>
<path d="M14.0861 3.80322L13.3224 6.34939C13.224 6.67705 12.9219 6.90169 12.5803 6.90169H10.1697C9.65067 6.90169 9.27886 6.40129 9.42758 5.90476L10.0581 3.80322" stroke="#9CA3AF" stroke-width="1.5" stroke-linecap="round" stroke-linejoin="round"/>
<path d="M6.90088 10.7744H8.55081" stroke="#9CA3AF" stroke-width="1.5" stroke-linecap="round" stroke-linejoin="round"/>
<path d="M14.2125 13.0986H6.01087C4.76529 13.0986 3.87216 11.898 4.23003 10.7051L5.9032 5.12782C6.13946 4.34158 6.86295 3.80322 7.68405 3.80322H15.8865C17.1321 3.80322 18.0252 5.00388 17.6673 6.19679L15.9941 11.774C15.7579 12.5603 15.0336 13.0986 14.2125 13.0986Z" stroke="#9CA3AF" stroke-width="1.5" stroke-linecap="round" stroke-linejoin="round"/>
</svg>
