<svg width="20" height="22" viewBox="0 0 20 22" fill="none" xmlns="http://www.w3.org/2000/svg">
<path d="M17.4002 3.79641L12.5702 1.01719C10.9899 0.1056 9.05347 0.1056 7.47315 1.01719L2.62091 3.79641C1.06285 4.708 0.0834961 6.39777 0.0834961 8.1987V13.7794C0.0834961 15.6026 1.06285 17.2701 2.62091 18.1817L7.45089 20.9831C9.03121 21.8947 10.9677 21.8947 12.548 20.9831L17.378 18.1817C18.9583 17.2701 19.9154 15.6026 19.9154 13.7794V8.1987C19.9599 6.39777 18.9805 4.708 17.4002 3.79641ZM10.0106 15.9583C7.27283 15.9583 5.04703 13.7349 5.04703 11.0002C5.04703 8.2654 7.27283 6.04202 10.0106 6.04202C12.7483 6.04202 14.9964 8.2654 14.9964 11.0002C14.9964 13.7349 12.7706 15.9583 10.0106 15.9583Z" fill="#111827"/>
</svg>
