<svg width="20" height="22" viewBox="0 0 20 22" fill="none" xmlns="http://www.w3.org/2000/svg">
<path d="M17.4002 3.79623L12.5702 1.017C10.9899 0.105417 9.05347 0.105417 7.47315 1.017L2.62091 3.79623C1.06285 4.70781 0.0834961 6.39758 0.0834961 8.19852V13.7792C0.0834961 15.6024 1.06285 17.2699 2.62091 18.1815L7.45089 20.983C9.03121 21.8945 10.9677 21.8945 12.548 20.983L17.378 18.1815C18.9583 17.2699 19.9154 15.6024 19.9154 13.7792V8.19852C19.9599 6.39758 18.9805 4.70781 17.4002 3.79623ZM10.0106 15.9581C7.27283 15.9581 5.04703 13.7347 5.04703 11C5.04703 8.26522 7.27283 6.04184 10.0106 6.04184C12.7483 6.04184 14.9964 8.26522 14.9964 11C14.9964 13.7347 12.7706 15.9581 10.0106 15.9581Z" fill="url(#paint0_linear_5058_7779)"/>
<defs>
<linearGradient id="paint0_linear_5058_7779" x1="19.9168" y1="0.333313" x2="-1.35993" y2="20.1141" gradientUnits="userSpaceOnUse">
<stop stop-color="#A78BFA"/>
<stop offset="1" stop-color="#6D28D9"/>
</linearGradient>
</defs>
</svg>
