<svg width="336" height="87" viewBox="0 0 336 87" fill="none" xmlns="http://www.w3.org/2000/svg">
<path d="M80.8003 54.8094V32.008C80.8003 24.5885 76.8191 17.8023 70.4854 14.0926L50.7603 2.78232C44.3361 -0.92744 36.4642 -0.92744 30.04 2.78232L10.4054 14.0926C3.9812 17.8023 0 24.6789 0 32.008V54.7189C0 62.1384 3.9812 68.9246 10.3149 72.6343L29.9495 84.0351C36.3737 87.7448 44.2457 87.7448 50.6699 84.0351L70.3044 72.6343C76.8191 69.0151 80.8003 62.1384 80.8003 54.8094Z" fill="#56FBB1"/>
<path d="M40.3552 63.5861C51.4989 63.5861 60.5327 54.5523 60.5327 43.4086C60.5327 32.2649 51.4989 23.2312 40.3552 23.2312C29.2115 23.2312 20.1777 32.2649 20.1777 43.4086C20.1777 54.5523 29.2115 63.5861 40.3552 63.5861Z" fill="white"/>
<path d="M147.938 20.5167H160.696V64.8528H153.005V27.2124L140.79 64.8528H132.737L120.431 27.6648V64.8528H112.74V20.5167H125.589L136.808 56.0761L147.938 20.5167Z" fill="#0A3149"/>
<path d="M199.512 54.8094C197.702 61.505 192.002 65.6672 184.13 65.6672C174.267 65.6672 167.934 58.9715 167.934 48.928C167.934 38.8845 174.267 32.1889 184.311 32.1889C195.44 32.1889 201.231 40.5132 198.155 50.9186H175.625C176.258 56.1666 179.153 59.243 184.22 59.243C187.749 59.243 190.554 57.6143 191.64 54.7189H199.512V54.8094ZM175.715 45.8516H191.278C191.73 41.3275 189.106 38.3416 184.13 38.3416C179.425 38.3416 176.439 40.9656 175.715 45.8516Z" fill="#0A3149"/>
<path d="M228.557 20.5167H235.795V64.8528H228.557V60.1478C226.114 63.6766 222.404 65.7577 217.789 65.7577C209.465 65.7577 203.493 59.062 203.493 49.0185C203.493 38.975 209.284 32.2794 217.789 32.2794C222.404 32.2794 226.114 34.27 228.557 37.8892V20.5167ZM228.828 49.0185C228.828 42.7753 225.299 38.6131 219.961 38.6131C214.532 38.6131 211.003 42.7753 211.003 49.0185C211.003 55.2618 214.532 59.4239 219.961 59.4239C225.299 59.3334 228.828 55.2618 228.828 49.0185Z" fill="#0A3149"/>
<path d="M262.578 33.1842H269.816V64.8528H262.578V59.1525C260.316 63.4051 256.787 65.5767 252.353 65.5767C243.577 65.5767 242.129 56.7999 242.129 51.1901V33.0937H249.367V51.0996C249.367 55.2618 250.363 59.243 254.887 59.243C259.592 59.243 262.578 55.0808 262.578 49.1995V33.1842Z" fill="#0A3149"/>
<path d="M275.156 53.4521H282.123C281.67 57.3428 284.566 59.8763 289.542 59.8763C293.433 59.8763 295.967 58.3381 295.967 56.0761C295.967 49.7424 275.608 54.2665 275.608 42.4133C275.608 36.0796 281.489 32.1889 289.18 32.1889C297.686 32.1889 303.839 36.8939 302.481 44.1325H295.424C296.329 40.5132 293.433 38.0702 289.09 38.0702C285.38 38.0702 283.028 39.6989 283.028 41.9609C283.028 48.3851 303.477 43.4991 303.477 55.5332C303.477 61.9574 297.686 65.6672 289.452 65.6672C280.494 65.6672 274.613 61.1431 275.156 53.4521Z" fill="#0A3149"/>
<path d="M335.868 46.8469V64.8528H329.173V59.3334C326.82 63.4051 322.929 65.7577 317.772 65.7577C311.076 65.7577 306.914 61.8669 306.914 56.3475C306.914 49.9233 312.524 46.1231 321.391 46.1231C323.834 46.1231 326.368 46.3945 328.63 46.9374C328.63 42.1419 326.911 38.6131 321.844 38.6131C318.043 38.6131 315.691 40.5132 316.415 44.042H309.086C307.366 36.9844 313.61 32.2794 321.844 32.2794C331.163 32.2794 335.868 37.9797 335.868 46.8469ZM328.901 52.3663C326.82 51.6425 324.287 51.2806 322.025 51.2806C316.867 51.2806 314.334 53.1807 314.334 56.0761C314.334 58.6096 316.234 59.9668 319.31 59.9668C323.925 59.9668 327.725 56.9809 328.901 52.3663Z" fill="#0A3149"/>
</svg>
