<svg width="16" height="18" viewBox="0 0 16 18" fill="none" xmlns="http://www.w3.org/2000/svg">
<path d="M10.2402 0.219952C10.5415 0.387894 10.6893 0.739627 10.5986 1.07236L8.98195 7.00003H14.875C15.1737 7.00003 15.4439 7.17721 15.5629 7.45111C15.6819 7.72502 15.6271 8.04344 15.4233 8.26176L6.67331 17.6368C6.43798 17.8889 6.06104 17.948 5.75981 17.7801C5.45857 17.6122 5.3107 17.2604 5.40144 16.9277L7.01808 11H1.12502C0.826369 11 0.556182 10.8228 0.437156 10.5489C0.31813 10.275 0.372952 9.95661 0.576725 9.73829L9.32673 0.363287C9.56205 0.111154 9.93899 0.0520091 10.2402 0.219952Z" fill="url(#paint0_linear_5021_17377)"/>
<defs>
<linearGradient id="paint0_linear_5021_17377" x1="15.625" y1="0.125" x2="-1.92244" y2="15.201" gradientUnits="userSpaceOnUse">
<stop stop-color="#A78BFA"/>
<stop offset="1" stop-color="#6D28D9"/>
</linearGradient>
</defs>
</svg>
