<svg width="18" height="16" viewBox="0 0 18 16" fill="none" xmlns="http://www.w3.org/2000/svg">
<path d="M3.375 9.875H14.625M3.375 9.875C2.71196 9.875 2.07607 9.61161 1.60723 9.14277C1.13839 8.67393 0.875 8.03804 0.875 7.375M3.375 9.875C2.71196 9.875 2.07607 10.1384 1.60723 10.6072C1.13839 11.0761 0.875 11.712 0.875 12.375C0.875 13.038 1.13839 13.6739 1.60723 14.1428C2.07607 14.6116 2.71196 14.875 3.375 14.875H14.625C15.288 14.875 15.9239 14.6116 16.3928 14.1428C16.8616 13.6739 17.125 13.038 17.125 12.375C17.125 11.712 16.8616 11.0761 16.3928 10.6072C15.9239 10.1384 15.288 9.875 14.625 9.875M0.875 7.375C0.875 6.71196 1.13839 6.07607 1.60723 5.60723C2.07607 5.13839 2.71196 4.875 3.375 4.875H14.625C15.288 4.875 15.9239 5.13839 16.3928 5.60723C16.8616 6.07607 17.125 6.71196 17.125 7.375M0.875 7.375C0.875 6.56361 1.13817 5.77411 1.625 5.125L3.78083 2.25C4.04281 1.9007 4.38251 1.61719 4.77305 1.42192C5.16358 1.22666 5.59421 1.125 6.03083 1.125H11.9692C12.8542 1.125 13.6875 1.54167 14.2192 2.25L16.375 5.125C16.8618 5.77411 17.125 6.56361 17.125 7.375M17.125 7.375C17.125 8.03804 16.8616 8.67393 16.3928 9.14277C15.9239 9.61161 15.288 9.875 14.625 9.875M14.625 12.375H14.6317V12.3817H14.625V12.375ZM14.625 7.375H14.6317V7.38167H14.625V7.375ZM12.125 12.375H12.1317V12.3817H12.125V12.375ZM12.125 7.375H12.1317V7.38167H12.125V7.375Z" stroke="#9CA3AF" stroke-width="1.5" stroke-linecap="round" stroke-linejoin="round"/>
</svg>
