<svg width="12" height="16" viewBox="0 0 12 16" fill="none" xmlns="http://www.w3.org/2000/svg">
<path d="M4.84975 4.832C4.84975 4.13511 5.42931 3.86489 6.36086 3.86489C7.71553 3.86489 9.43998 4.28089 10.7946 5.00978V0.814222C9.31909 0.224 7.84353 0 6.36442 0C2.75198 0 0.341309 1.888 0.341309 5.04178C0.341309 9.97689 7.11464 9.17689 7.11464 11.3031C7.11464 12.128 6.39998 12.3947 5.40442 12.3947C3.92886 12.3947 2.02309 11.7867 0.526197 10.9724V14.9867C2.06575 15.6516 3.72264 15.9964 5.40086 16C9.10575 16 11.6586 14.4071 11.6586 11.2C11.6622 5.88444 4.84975 6.83733 4.84975 4.832Z" fill="#9CA3AF"/>
</svg>
