<svg width="20" height="20" viewBox="0 0 20 20" fill="none" xmlns="http://www.w3.org/2000/svg">
<path d="M12.6137 2.92114C12.6137 3.21337 12.5562 3.50274 12.4443 3.77273C12.3325 4.04272 12.1686 4.28804 11.962 4.49467C11.7553 4.70131 11.51 4.86523 11.24 4.97706C10.97 5.08889 10.6807 5.14645 10.3884 5.14645H9.61203C9.3198 5.14645 9.03043 5.08889 8.76044 4.97706C8.49045 4.86523 8.24514 4.70131 8.0385 4.49467C7.62117 4.07735 7.38672 3.51133 7.38672 2.92114" stroke="#737373" stroke-width="1.5" stroke-linecap="round" stroke-linejoin="round"/>
<path d="M14.4712 11.1171L16.8916 10.547C16.9879 10.5243 17.0787 10.4827 17.1588 10.4246C17.2389 10.3666 17.3066 10.2932 17.3581 10.2087C17.4096 10.1242 17.4437 10.0304 17.4586 9.93258C17.4735 9.8348 17.4688 9.73502 17.4449 9.63906L16.4773 5.7689C16.3703 5.34079 16.1697 4.94172 15.8901 4.60037C15.6104 4.25903 15.2586 3.98389 14.8599 3.79474L13.5947 3.19453C13.1946 3.00472 12.7573 2.90625 12.3145 2.90625H7.68589C7.24305 2.90625 6.80575 3.00472 6.40565 3.19453L5.14048 3.79474C4.74179 3.98389 4.38996 4.25903 4.11029 4.60037C3.83062 4.94172 3.63006 5.34079 3.52303 5.7689L2.5555 9.63904C2.53151 9.73501 2.52682 9.83478 2.54172 9.93257C2.55661 10.0304 2.59079 10.1242 2.64226 10.2087C2.69373 10.2932 2.76148 10.3666 2.84155 10.4246C2.92163 10.4827 3.01245 10.5243 3.10874 10.547L5.51055 11.1127" stroke="#737373" stroke-width="1.5" stroke-linecap="round" stroke-linejoin="round"/>
<path d="M5.52166 8.87988L5.52157 15.2593C5.51798 15.5854 5.62259 15.9034 5.81905 16.1637C6.01551 16.424 6.29272 16.6118 6.6073 16.6978C8.83962 17.2258 11.1643 17.2257 13.3966 16.6976C13.7112 16.6116 13.9883 16.4238 14.1848 16.1635C14.3812 15.9033 14.4858 15.5852 14.4822 15.2591L14.4821 8.87988" stroke="#737373" stroke-width="1.5" stroke-linecap="round" stroke-linejoin="round"/>
</svg>
