<svg width="14" height="18" viewBox="0 0 14 18" fill="none" xmlns="http://www.w3.org/2000/svg">
<path d="M7.00046 13.571V9.57069M7.00046 9.57069C7.38598 9.57099 7.76999 9.52261 8.14339 9.42668M7.00046 9.57069C6.61493 9.57099 6.23092 9.52261 5.85752 9.42668M8.71486 15.1246C7.58205 15.3397 6.41887 15.3397 5.28605 15.1246M8.14339 16.9403C7.38351 17.0199 6.6174 17.0199 5.85752 16.9403M8.71486 13.571V13.4247C8.71486 12.6757 9.21623 12.0356 9.86389 11.66C10.952 11.0299 11.8019 10.0585 12.2819 8.8964C12.7619 7.73428 12.8453 6.44629 12.5191 5.23199C12.1928 4.0177 11.4752 2.94488 10.4775 2.17978C9.47969 1.41468 8.25743 1 7.00008 1C5.74272 1 4.52046 1.41468 3.52269 2.17978C2.52491 2.94488 1.80732 4.0177 1.48109 5.23199C1.15487 6.44629 1.23823 7.73428 1.71826 8.8964C2.19829 10.0585 3.04819 11.0299 4.13626 11.66C4.78393 12.0356 5.28605 12.6757 5.28605 13.4247V13.571" stroke="#F97316" stroke-width="1.37152" stroke-linecap="round" stroke-linejoin="round"/>
</svg>
