<svg width="21" height="20" viewBox="0 0 21 20" fill="none" xmlns="http://www.w3.org/2000/svg">
<path fill-rule="evenodd" clip-rule="evenodd" d="M10.8169 6.06351C10.8167 5.44855 10.9606 4.84211 11.237 4.29277C11.5134 3.74343 11.9147 3.26648 12.4086 2.90013C12.9025 2.53379 13.4754 2.28824 14.0813 2.18315C14.6872 2.07807 15.3093 2.11638 15.8978 2.29501C15.9908 2.32318 16.0749 2.37498 16.1419 2.44534C16.209 2.5157 16.2566 2.60222 16.2803 2.69649C16.3039 2.79075 16.3027 2.88952 16.2768 2.98319C16.2509 3.07686 16.2012 3.16222 16.1325 3.23095L13.6427 5.72003C13.6899 6.07626 13.8497 6.42049 14.1234 6.69422C14.3971 6.96795 14.7414 7.12769 15.0983 7.17419L17.5867 4.6851C17.6554 4.6164 17.7408 4.56668 17.8344 4.54078C17.9281 4.51489 18.0269 4.5137 18.1211 4.53734C18.2154 4.56099 18.3019 4.60864 18.3723 4.67568C18.4426 4.74271 18.4944 4.82683 18.5226 4.91984C18.7095 5.53544 18.7427 6.18746 18.6193 6.81886C18.4959 7.45026 18.2197 8.0418 17.8147 8.54174C17.4098 9.04167 16.8886 9.43477 16.2966 9.68663C15.7046 9.93849 15.0599 10.0415 14.4189 9.9865C13.6554 9.92201 13.0165 10.0615 12.6872 10.462L7.32509 16.9753C7.10554 17.2406 6.833 17.4571 6.52493 17.611C6.21686 17.7649 5.88004 17.8528 5.53606 17.869C5.19207 17.8852 4.84848 17.8294 4.52731 17.7052C4.20613 17.5809 3.91443 17.391 3.6709 17.1475C3.42737 16.904 3.23736 16.6124 3.11305 16.2912C2.98874 15.9701 2.93287 15.6265 2.94901 15.2825C2.96514 14.9385 3.05294 14.6017 3.20676 14.2936C3.36059 13.9855 3.57707 13.7129 3.84232 13.4933L10.3549 8.13037C10.7546 7.8004 10.8949 7.16219 10.8304 6.39874C10.8212 6.28723 10.8167 6.17539 10.8169 6.06351ZM4.905 15.3442C4.905 15.195 4.96426 15.0519 5.06974 14.9464C5.17523 14.8409 5.31829 14.7817 5.46746 14.7817H5.47346C5.62264 14.7817 5.7657 14.8409 5.87119 14.9464C5.97667 15.0519 6.03593 15.195 6.03593 15.3442V15.3501C6.03593 15.4993 5.97667 15.6424 5.87119 15.7479C5.7657 15.8534 5.62264 15.9126 5.47346 15.9126H5.46746C5.31829 15.9126 5.17523 15.8534 5.06974 15.7479C4.96426 15.6424 4.905 15.4993 4.905 15.3501V15.3442Z" fill="#889096"/>
<path d="M9.37377 7.48082L7.72313 5.83093V4.65651C7.72313 4.5594 7.69798 4.46395 7.65014 4.37945C7.60231 4.29495 7.53341 4.22427 7.45015 4.17429L4.63783 2.4869C4.53027 2.42242 4.40424 2.39574 4.27978 2.41109C4.15531 2.42645 4.03955 2.48296 3.95088 2.57164L3.38842 3.13411C3.29973 3.22278 3.24322 3.33854 3.22787 3.46301C3.21251 3.58747 3.23919 3.7135 3.30367 3.82106L4.99106 6.63338C5.04104 6.71663 5.11172 6.78553 5.19622 6.83337C5.28073 6.88121 5.37617 6.90635 5.47328 6.90636H6.6462L8.1926 8.45276L9.37377 7.48007V7.48082Z" fill="#889096"/>
<path fill-rule="evenodd" clip-rule="evenodd" d="M11.2339 13.9971L14.3709 17.1334C14.606 17.3685 14.885 17.5549 15.1921 17.6821C15.4992 17.8093 15.8283 17.8748 16.1607 17.8748C16.4931 17.8748 16.8222 17.8093 17.1293 17.6821C17.4364 17.5549 17.7154 17.3685 17.9504 17.1334C18.1855 16.8984 18.3719 16.6194 18.4991 16.3123C18.6263 16.0052 18.6918 15.6761 18.6918 15.3437C18.6918 15.0113 18.6263 14.6821 18.4991 14.3751C18.3719 14.068 18.1855 13.7889 17.9504 13.5539L15.4711 11.0753C15.0911 11.1292 14.7062 11.14 14.3237 11.1076C14.0282 11.0821 13.8122 11.1031 13.6735 11.1391C13.6296 11.1484 13.5873 11.1643 13.5482 11.1863L11.2339 13.9971ZM13.7942 12.9772C13.8997 12.8719 14.0426 12.8127 14.1917 12.8127C14.3407 12.8127 14.4837 12.8719 14.5892 12.9772L15.9953 14.3841C16.0506 14.4356 16.0949 14.4977 16.1257 14.5667C16.1564 14.6357 16.1729 14.7102 16.1743 14.7857C16.1756 14.8612 16.1617 14.9362 16.1334 15.0063C16.1051 15.0763 16.063 15.1399 16.0096 15.1933C15.9562 15.2467 15.8926 15.2888 15.8225 15.3171C15.7525 15.3454 15.6775 15.3593 15.602 15.358C15.5264 15.3566 15.452 15.3401 15.383 15.3094C15.314 15.2786 15.2519 15.2343 15.2004 15.179L13.7942 13.7729C13.6889 13.6674 13.6297 13.5245 13.6297 13.3754C13.6297 13.2264 13.6889 13.0834 13.7942 12.9779V12.9772Z" fill="#889096"/>
</svg>
