<svg width="905" height="234" viewBox="0 0 905 234" fill="none" xmlns="http://www.w3.org/2000/svg">
<g clip-path="url(#clip0)">
<path d="M189.638 38.0267L136.744 7.55792C119.438 -2.43583 98.2313 -2.43583 80.925 7.55792L27.7875 38.0267C10.725 48.0204 0 66.5454 0 86.2892V147.47C0 167.458 10.725 185.739 27.7875 195.733L80.6812 226.445C97.9875 236.439 119.194 236.439 136.5 226.445L189.394 195.733C206.7 185.739 217.181 167.458 217.181 147.47V86.2892C217.669 66.5454 206.944 48.0204 189.638 38.0267ZM108.712 171.358C78.7312 171.358 54.3562 146.983 54.3562 117.002C54.3562 87.0204 78.7312 62.6454 108.712 62.6454C138.694 62.6454 163.312 87.0204 163.312 117.002C163.312 146.983 138.938 171.358 108.712 171.358Z" fill="#0A3149"/>
<path d="M398.808 55.3289H433.176V174.766H412.458V73.3664L379.308 174.766H357.614L324.464 74.5852V174.766H303.745V55.3289H338.358L368.583 151.123L398.808 55.3289Z" fill="#0A3149"/>
<path d="M537.501 147.712C532.626 165.749 517.27 176.962 496.064 176.962C469.495 176.962 452.433 158.924 452.433 131.868C452.433 104.812 469.495 86.774 496.552 86.774C526.533 86.774 542.133 109.199 533.845 137.23H473.151C474.858 151.368 482.658 159.655 496.308 159.655C505.814 159.655 513.37 155.268 516.295 147.468H537.501V147.712ZM473.639 123.58H515.564C516.783 111.393 509.714 103.349 496.308 103.349C483.633 103.349 475.589 110.418 473.639 123.58Z" fill="#0A3149"/>
<path d="M615.989 55.3293H635.489V174.767H615.989V162.092C609.408 171.598 599.414 177.204 586.983 177.204C564.558 177.204 548.47 159.167 548.47 132.111C548.47 105.054 564.07 87.0168 586.983 87.0168C599.414 87.0168 609.408 92.3793 615.989 102.129V55.3293ZM616.72 132.111C616.72 115.292 607.214 104.079 592.833 104.079C578.208 104.079 568.701 115.292 568.701 132.111C568.701 148.929 578.208 160.142 592.833 160.142C607.214 159.898 616.72 148.929 616.72 132.111Z" fill="#0A3149"/>
<path d="M707.639 89.4553H727.139V174.768H707.639V159.412C701.545 170.868 692.039 176.718 680.095 176.718C656.451 176.718 652.552 153.074 652.552 137.962V89.2115H672.052V137.718C672.052 148.93 674.733 159.655 686.92 159.655C699.595 159.655 707.639 148.443 707.639 132.599V89.4553Z" fill="#0A3149"/>
<path d="M741.52 144.055H760.289C759.07 154.537 766.87 161.362 780.277 161.362C790.758 161.362 797.583 157.218 797.583 151.124C797.583 134.062 742.739 146.249 742.739 114.318C742.739 97.2553 758.583 86.774 779.302 86.774C802.214 86.774 818.789 99.449 815.133 118.949H796.12C798.558 109.199 790.758 102.618 779.058 102.618C769.064 102.618 762.726 107.005 762.726 113.099C762.726 130.405 817.814 117.243 817.814 149.662C817.814 166.968 802.214 176.962 780.033 176.962C755.901 176.962 740.058 164.774 741.52 144.055Z" fill="#0A3149"/>
<path d="M905.077 126.261V174.767H887.039V159.898C880.702 170.867 870.22 177.204 856.327 177.204C838.289 177.204 827.077 166.723 827.077 151.854C827.077 134.548 842.189 124.311 866.077 124.311C872.658 124.311 879.483 125.042 885.577 126.504C885.577 113.586 880.945 104.079 867.295 104.079C857.058 104.079 850.72 109.198 852.67 118.704H832.927C828.295 99.6918 845.114 87.0168 867.295 87.0168C892.402 87.0168 905.077 102.373 905.077 126.261ZM886.308 141.129C880.702 139.179 873.877 138.204 867.783 138.204C853.889 138.204 847.064 143.323 847.064 151.123C847.064 157.948 852.183 161.604 860.47 161.604C872.902 161.604 883.139 153.561 886.308 141.129Z" fill="#0A3149"/>
</g>
<defs>
<clipPath id="clip0">
<rect width="904.8" height="234" fill="white"/>
</clipPath>
</defs>
</svg>
