<svg width="180" height="34" viewBox="0 0 180 34" fill="none" xmlns="http://www.w3.org/2000/svg">
<path d="M28.8127 5.51902L20.7763 1.08963C18.1468 -0.36321 14.9248 -0.36321 12.2954 1.08963L4.22191 5.51902C1.62951 6.97186 0 9.66493 0 12.5352V21.4294C0 24.3351 1.62951 26.9927 4.22191 28.4455L12.2584 32.9104C14.8878 34.3632 18.1098 34.3632 20.7392 32.9104L28.7757 28.4455C31.4051 26.9927 32.9976 24.3351 32.9976 21.4294V12.5352C33.0716 9.66493 31.4421 6.97186 28.8127 5.51902ZM16.5173 24.902C11.9621 24.902 8.25865 21.3585 8.25865 17C8.25865 12.6415 11.9621 9.09797 16.5173 9.09797C21.0725 9.09797 24.813 12.6415 24.813 17C24.813 21.3585 21.1096 24.902 16.5173 24.902Z" fill="#0A3149"/>
<path d="M61.7666 2.83334H69.7566V30.5999H64.9399V7.02666L57.2333 30.5999H52.19L44.4833 7.31V30.5999H39.6667V2.83334H47.7133L54.74 25.1033L61.7666 2.83334Z" fill="#0A3149"/>
<path d="M94.0099 24.3103C92.8766 28.5036 89.3066 31.1102 84.3766 31.1102C78.1999 31.1102 74.2333 26.9169 74.2333 20.6269C74.2333 14.337 78.1999 10.1436 84.4899 10.1436C91.4599 10.1436 95.0865 15.357 93.1599 21.8736H79.0499C79.4466 25.1603 81.2599 27.0869 84.4332 27.0869C86.6432 27.0869 88.3999 26.0669 89.0799 24.2536H94.0099V24.3103ZM79.1633 18.7003H88.9099C89.1932 15.867 87.5499 13.997 84.4332 13.997C81.4866 13.997 79.6166 15.6403 79.1633 18.7003Z" fill="#0A3149"/>
<path d="M112.257 2.83344H116.79V30.6H112.257V27.6534C110.727 29.8633 108.403 31.1667 105.513 31.1667C100.3 31.1667 96.5599 26.9734 96.5599 20.6834C96.5599 14.3934 100.187 10.2001 105.513 10.2001C108.403 10.2001 110.727 11.4467 112.257 13.7134V2.83344ZM112.427 20.6834C112.427 16.7734 110.217 14.1667 106.873 14.1667C103.473 14.1667 101.263 16.7734 101.263 20.6834C101.263 24.5934 103.473 27.2 106.873 27.2C110.217 27.1434 112.427 24.5934 112.427 20.6834Z" fill="#0A3149"/>
<path d="M133.563 10.767H138.096V30.6002H133.563V27.0302C132.146 29.6936 129.936 31.0536 127.16 31.0536C121.663 31.0536 120.756 25.5569 120.756 22.0436V10.7103H125.29V21.9869C125.29 24.5936 125.913 27.0869 128.746 27.0869C131.693 27.0869 133.563 24.4803 133.563 20.7969V10.767Z" fill="#0A3149"/>
<path d="M141.44 23.4603H145.803C145.52 25.8969 147.333 27.4836 150.45 27.4836C152.886 27.4836 154.473 26.5203 154.473 25.1036C154.473 21.1369 141.723 23.9703 141.723 16.547C141.723 12.5803 145.406 10.1436 150.223 10.1436C155.55 10.1436 159.403 13.0903 158.553 17.6236H154.133C154.7 15.357 152.886 13.827 150.166 13.827C147.843 13.827 146.37 14.847 146.37 16.2636C146.37 20.2869 159.176 17.227 159.176 24.7636C159.176 28.7869 155.55 31.1102 150.393 31.1102C144.783 31.1102 141.1 28.2769 141.44 23.4603Z" fill="#0A3149"/>
<path d="M179.463 19.3234V30.6H175.27V27.1434C173.796 29.6933 171.36 31.1667 168.13 31.1667C163.936 31.1667 161.33 28.73 161.33 25.2734C161.33 21.25 164.843 18.87 170.396 18.87C171.926 18.87 173.513 19.04 174.93 19.38C174.93 16.3767 173.853 14.1667 170.68 14.1667C168.3 14.1667 166.826 15.3567 167.28 17.5667H162.69C161.613 13.1467 165.523 10.2001 170.68 10.2001C176.516 10.2001 179.463 13.7701 179.463 19.3234ZM175.1 22.78C173.796 22.3267 172.21 22.1 170.793 22.1C167.563 22.1 165.976 23.29 165.976 25.1034C165.976 26.69 167.166 27.54 169.093 27.54C171.983 27.54 174.363 25.67 175.1 22.78Z" fill="#0A3149"/>
</svg>
