<svg width="602" height="122" viewBox="0 0 602 122" fill="none" xmlns="http://www.w3.org/2000/svg">
<rect width="602" height="122" fill="white"/>
<path d="M95.0625 0H129.431V119.437H108.713V18.0375L75.5625 119.437H53.8688L20.7188 19.2562V119.437H0V0H34.6125L64.8375 95.7937L95.0625 0Z" fill="#89959C"/>
<path d="M233.756 92.3826C228.881 110.42 213.525 121.633 192.319 121.633C165.75 121.633 148.688 103.595 148.688 76.5388C148.688 49.4826 165.75 31.4451 192.806 31.4451C222.788 31.4451 238.387 53.8701 230.1 81.9014H169.406C171.112 96.0389 178.913 104.326 192.562 104.326C202.069 104.326 209.625 99.9389 212.55 92.1389H233.756V92.3826ZM169.894 68.2514H211.819C213.037 56.0639 205.969 48.0201 192.562 48.0201C179.888 48.0201 171.844 55.0889 169.894 68.2514Z" fill="#89959C"/>
<path d="M312.244 0.000396729H331.744V119.438H312.244V106.763C305.663 116.269 295.669 121.875 283.238 121.875C260.813 121.875 244.725 103.838 244.725 76.7816C244.725 49.7254 260.325 31.6879 283.238 31.6879C295.669 31.6879 305.663 37.0504 312.244 46.8004V0.000396729V0.000396729ZM312.975 76.7816C312.975 59.9629 303.469 48.7504 289.088 48.7504C274.463 48.7504 264.956 59.9629 264.956 76.7816C264.956 93.6004 274.463 104.813 289.088 104.813C303.469 104.569 312.975 93.6004 312.975 76.7816Z" fill="#89959C"/>
<path d="M403.894 34.1264H423.394V119.439H403.894V104.083C397.8 115.539 388.294 121.389 376.35 121.389C352.706 121.389 348.806 97.7451 348.806 82.6326V33.8826H368.306V82.3889C368.306 93.6014 370.987 104.326 383.175 104.326C395.85 104.326 403.894 93.1139 403.894 77.2701V34.1264Z" fill="#89959C"/>
<path d="M437.775 88.7263H456.544C455.325 99.2076 463.125 106.033 476.531 106.033C487.013 106.033 493.838 101.889 493.838 95.7951C493.838 78.7326 438.994 90.9201 438.994 58.9889C438.994 41.9264 454.838 31.4451 475.556 31.4451C498.469 31.4451 515.044 44.1201 511.387 63.6201H492.375C494.813 53.8701 487.013 47.2888 475.313 47.2888C465.319 47.2888 458.981 51.6764 458.981 57.7701C458.981 75.0764 514.069 61.9139 514.069 94.3326C514.069 111.639 498.469 121.633 476.287 121.633C452.156 121.633 436.313 109.445 437.775 88.7263Z" fill="#89959C"/>
<path d="M601.331 70.9316V119.438H583.293V104.569C576.956 115.538 566.475 121.875 552.581 121.875C534.544 121.875 523.331 111.394 523.331 96.5254C523.331 79.2191 538.444 68.9816 562.331 68.9816C568.912 68.9816 575.737 69.7129 581.831 71.1754C581.831 58.2566 577.2 48.7504 563.55 48.7504C553.312 48.7504 546.975 53.8691 548.925 63.3754H529.181C524.55 44.3629 541.369 31.6879 563.55 31.6879C588.656 31.6879 601.331 47.0441 601.331 70.9316ZM582.562 85.8004C576.956 83.8504 570.131 82.8754 564.037 82.8754C550.144 82.8754 543.319 87.9941 543.319 95.7941C543.319 102.619 548.437 106.275 556.725 106.275C569.156 106.275 579.394 98.2316 582.562 85.8004Z" fill="#89959C"/>
</svg>
